# xmcd
#
# Track frame offsets: 
#        150
#        12884
#        40814
#        54393
#        66665
#        81472
#        114848
#        148875
#        179283
#        212111
#        227137
#        254395
#        282791
#        310634
#
# Disc length: 4488 seconds
#
# Revision: 0
# Processed by: cddbd v1.5.1PL2 Copyright (c) Steve Scherf et al.
# Submitted via: ExactAudioCopy v0.95b3
#
DISCID=c811860e
DTITLE=Mylene Farmer - Le Sens Et Le Sexe
DYEAR=1900
DGENRE=Pop
TTITLE0=Fuck Them All
TTITLE1=Desenchatee
TTITLE2=California
TTITLE3=Sans Contrefacon
TTITLE4=XXL
TTITLE5=Porno Graphique
TTITLE6=Regrets
TTITLE7=Beyond My Control
TTITLE8=Sans Logique
TTITLE9=Optimistique-Moi
TTITLE10=Ainsi Soit Je
TTITLE11=Tristana
TTITLE12=Pourvu Qu'Elles Soient Douces
TTITLE13=Je T'Aime Melancholie
EXTD=
EXTT0=
EXTT1=
EXTT2=
EXTT3=
EXTT4=
EXTT5=
EXTT6=
EXTT7=
EXTT8=
EXTT9=
EXTT10=
EXTT11=
EXTT12=
EXTT13=
PLAYORDER=
